<svg width="157" height="36" viewBox="0 0 157 36" fill="none" xmlns="http://www.w3.org/2000/svg">
<path d="M2.346 5.58493L1.999 4.70054C1.923 4.50834 1.769 4.31604 1.538 4.23914L0.653999 3.85463C0.537999 3.81613 0.537999 3.62394 0.653999 3.54704L1.538 3.20094C1.73 3.12404 1.923 2.97023 1.999 2.73953L2.384 1.85513C2.422 1.73973 2.615 1.73973 2.692 1.85513L3.038 2.73953C3.115 2.93173 3.268 3.12404 3.499 3.20094L4.383 3.58543C4.499 3.62393 4.499 3.81614 4.383 3.89304L3.499 4.23914C3.307 4.31604 3.115 4.46984 3.038 4.70054L2.653 5.58493C2.576 5.70023 2.384 5.70023 2.346 5.58493ZM37.336 19.0045C36.798 28.5404 28.915 36 19.38 36C14.496 36 9.92 34.0774 6.498 30.5783C3.076 27.0793 1.269 22.4651 1.384 17.5818C1.384 17.1972 1.423 16.8127 1.461 16.4282C1.461 16.3129 1.423 16.159 1.307 16.0821C0.499999 15.4669 0 14.5056 0 13.429C0 11.6218 1.423 10.1991 3.191 10.1222C3.23 10.1222 3.268 10.1222 3.345 10.1222C4.23 10.1222 5.037 10.4682 5.614 11.045C6.268 11.6602 6.652 12.5062 6.652 13.4674C6.652 14.967 5.652 16.2744 4.268 16.6589C4.114 16.6974 3.999 16.8512 3.999 17.005C3.999 17.2357 3.96 17.4279 3.96 17.6587C3.845 22.0806 5.575 26.2333 8.805 29.271C11.42 31.7319 14.881 33.2315 18.457 33.4238C26.762 33.8852 33.799 27.7714 34.683 19.735C34.722 19.5043 34.529 19.3121 34.299 19.3121H25.493C25.34 19.3121 25.186 19.4274 25.147 19.5812C24.455 22.119 22.11 24.0031 19.38 24.0031C15.957 24.0031 13.15 21.0808 13.381 17.6202C13.573 14.6594 15.957 12.2754 18.88 12.0447C21.84 11.814 24.417 13.7751 25.147 16.4282C25.186 16.582 25.34 16.6974 25.532 16.6974H35.145C35.76 16.6974 36.337 16.9281 36.721 17.3895C37.183 17.8125 37.375 18.4277 37.336 19.0045ZM22.802 18.0047C22.802 16.1206 21.264 14.5825 19.38 14.5825C17.495 14.5825 15.957 16.1206 15.957 18.0047C15.957 19.8888 17.495 21.4269 19.38 21.4269C21.264 21.4269 22.802 19.8888 22.802 18.0047ZM2.576 13.4674C2.576 13.8904 2.922 14.198 3.307 14.198C3.691 14.198 4.037 13.852 4.037 13.4674C4.037 13.0829 3.691 12.7369 3.307 12.7369C2.922 12.7369 2.576 13.0445 2.576 13.4674ZM6.383 9.73774C6.268 9.92994 6.037 9.96844 5.845 9.85304C5.383 9.54544 4.845 9.31474 4.307 9.16094C4.037 9.12244 3.96 8.81483 4.076 8.58413C4.806 7.43063 5.652 6.31553 6.614 5.35423C9.882 2.04743 14.189 0.163234 18.803 0.00943446C23.648 -0.144366 28.262 1.58593 31.761 4.93123C32.607 5.73873 33.068 6.85383 32.991 8.04583C32.914 9.23783 32.376 10.3144 31.415 11.045C29.838 12.237 27.608 12.1601 26.185 10.8143C25.762 10.4298 25.34 10.0837 24.878 9.77614C24.724 9.69924 24.57 9.69924 24.417 9.81464C23.84 10.276 23.109 10.5836 22.302 10.5836C20.764 10.5836 19.456 9.54543 19.11 8.12274C19.033 7.85354 18.995 7.54593 18.995 7.27683C18.995 6.66153 19.187 6.04633 19.495 5.54643C20.072 4.58523 21.148 3.93153 22.34 3.93153C24.109 3.93153 25.532 5.31574 25.647 7.04614C25.647 7.16144 25.724 7.27683 25.839 7.35373C26.608 7.81513 27.339 8.35343 27.993 9.00713C28.493 9.46853 29.3 9.50694 29.838 9.08403C30.184 8.81483 30.377 8.43034 30.415 8.00734C30.454 7.58444 30.261 7.19994 29.954 6.89224C26.954 4.04683 22.994 2.54724 18.841 2.66264C13.612 2.73954 9.036 5.58494 6.383 9.73774ZM23.109 7.19994C23.109 6.77694 22.763 6.46933 22.379 6.46933C21.994 6.46933 21.648 6.81534 21.648 7.19994C21.648 7.62284 21.994 7.96893 22.379 7.96893C22.763 7.96893 23.109 7.62284 23.109 7.19994ZM17.688 5.62333C17.957 5.58493 18.188 5.81564 18.111 6.08484C17.995 6.46934 17.957 6.81534 17.957 7.19994C17.957 7.39214 17.957 7.58443 17.995 7.77663C18.034 7.96893 17.88 8.16114 17.688 8.19964C15.611 8.54574 13.689 9.54543 12.189 11.1219C10.305 13.0829 9.305 15.6592 9.421 18.3892C9.613 23.5033 13.804 27.6945 18.918 27.9252C21.071 28.0021 23.109 27.4253 24.84 26.3102C24.993 26.1949 25.032 26.0026 24.955 25.8104C24.763 25.3874 24.609 24.8875 24.609 24.3877C24.609 22.5035 26.185 20.9655 28.108 21.0808C29.8 21.1577 31.184 22.542 31.261 24.2339C31.338 26.1564 29.838 27.7329 27.954 27.7329C27.8 27.7329 27.647 27.7329 27.493 27.6945C27.377 27.6945 27.262 27.6945 27.185 27.7714C24.84 29.6555 21.917 30.6552 18.764 30.5014C12.304 30.2323 7.075 24.9644 6.806 18.5046C6.691 15.0824 7.921 11.814 10.305 9.31474C12.343 7.27684 14.919 5.96943 17.688 5.62333ZM27.224 24.3877C27.224 24.8106 27.57 25.1182 27.954 25.1182C28.339 25.1182 28.685 24.7722 28.685 24.3877C28.685 24.0031 28.339 23.6571 27.954 23.6571C27.57 23.6571 27.224 23.9647 27.224 24.3877Z" fill="url(#paint0_linear_1_615)"/>
<path d="M54.757 24.6798C53.641 24.6798 52.669 24.4878 51.841 24.1038C51.013 23.7198 50.323 23.2038 49.771 22.5558C49.231 21.8958 48.823 21.1638 48.547 20.3598C48.283 19.5438 48.151 18.7098 48.151 17.8578C48.151 17.0058 48.283 16.1718 48.547 15.3558C48.823 14.5398 49.237 13.8078 49.789 13.1598C50.341 12.4998 51.037 11.9778 51.877 11.5938C52.717 11.1978 53.695 10.9998 54.811 10.9998C55.687 10.9998 56.437 11.1138 57.061 11.3418C57.697 11.5578 58.225 11.8398 58.645 12.1878C59.077 12.5358 59.419 12.9078 59.671 13.3038C59.935 13.6878 60.133 14.0538 60.265 14.4018C60.397 14.7498 60.487 15.0378 60.535 15.2658C60.583 15.4818 60.607 15.5898 60.607 15.5898H58.159C58.159 15.5898 58.135 15.5118 58.087 15.3558C58.051 15.1878 57.967 14.9838 57.835 14.7438C57.703 14.5038 57.511 14.2638 57.259 14.0238C57.019 13.7838 56.701 13.5858 56.305 13.4298C55.909 13.2618 55.417 13.1778 54.829 13.1778C54.121 13.1778 53.503 13.3098 52.975 13.5738C52.459 13.8378 52.027 14.1918 51.679 14.6358C51.331 15.0798 51.073 15.5778 50.905 16.1298C50.737 16.6818 50.653 17.2458 50.653 17.8218C50.653 18.6018 50.809 19.3518 51.121 20.0718C51.433 20.7918 51.895 21.3798 52.507 21.8358C53.131 22.2918 53.899 22.5198 54.811 22.5198C55.867 22.5198 56.701 22.2318 57.313 21.6558C57.937 21.0798 58.291 20.3118 58.375 19.3518H54.739V17.4078H60.751V18.3978C60.751 19.7778 60.487 20.9358 59.959 21.8718C59.431 22.7958 58.711 23.4978 57.799 23.9778C56.899 24.4458 55.885 24.6798 54.757 24.6798ZM62.643 24.4998V14.9598H65.019V16.2738H65.109C65.277 15.9018 65.553 15.5598 65.937 15.2478C66.321 14.9358 66.897 14.7798 67.665 14.7798C67.905 14.7798 68.103 14.7978 68.259 14.8338C68.415 14.8578 68.493 14.8698 68.493 14.8698V17.1918C68.493 17.1918 68.403 17.1798 68.223 17.1558C68.055 17.1318 67.845 17.1198 67.593 17.1198C66.753 17.1198 66.117 17.3538 65.685 17.8218C65.253 18.2898 65.037 19.0458 65.037 20.0898V24.4998H62.643ZM74.373 24.6798C73.329 24.6798 72.441 24.4458 71.709 23.9778C70.977 23.5098 70.419 22.9038 70.035 22.1598C69.663 21.4038 69.477 20.5938 69.477 19.7298C69.477 18.8658 69.663 18.0618 70.035 17.3178C70.419 16.5618 70.977 15.9498 71.709 15.4818C72.441 15.0138 73.329 14.7798 74.373 14.7798C75.429 14.7798 76.317 15.0138 77.037 15.4818C77.769 15.9498 78.321 16.5618 78.693 17.3178C79.077 18.0618 79.269 18.8658 79.269 19.7298C79.269 20.5938 79.077 21.4038 78.693 22.1598C78.321 22.9038 77.769 23.5098 77.037 23.9778C76.317 24.4458 75.429 24.6798 74.373 24.6798ZM74.373 22.6818C74.913 22.6818 75.363 22.5438 75.723 22.2678C76.095 21.9918 76.377 21.6318 76.569 21.1878C76.761 20.7318 76.857 20.2458 76.857 19.7298C76.857 19.2018 76.761 18.7158 76.569 18.2718C76.377 17.8278 76.095 17.4678 75.723 17.1918C75.363 16.9158 74.913 16.7778 74.373 16.7778C73.845 16.7778 73.395 16.9158 73.023 17.1918C72.651 17.4678 72.369 17.8278 72.177 18.2718C71.985 18.7158 71.889 19.2018 71.889 19.7298C71.889 20.2458 71.985 20.7318 72.177 21.1878C72.369 21.6318 72.651 21.9918 73.023 22.2678C73.395 22.5438 73.845 22.6818 74.373 22.6818ZM84.387 24.6798C83.391 24.6798 82.635 24.3738 82.119 23.7618C81.615 23.1498 81.363 22.3638 81.363 21.4038V14.9598H83.739V21.0078C83.739 21.5238 83.877 21.9378 84.153 22.2498C84.429 22.5498 84.819 22.6998 85.323 22.6998C85.767 22.6998 86.127 22.5858 86.403 22.3578C86.679 22.1298 86.877 21.8358 86.997 21.4758C87.129 21.1158 87.195 20.7438 87.195 20.3598V14.9598H89.589V24.4998H87.195V23.1318H87.087C86.967 23.3478 86.793 23.5758 86.565 23.8158C86.349 24.0558 86.061 24.2598 85.701 24.4278C85.353 24.5958 84.915 24.6798 84.387 24.6798ZM91.822 24.4998V14.9598H94.216V16.3278H94.324C94.42 16.1598 94.57 15.9558 94.774 15.7158C94.978 15.4638 95.26 15.2478 95.62 15.0678C95.98 14.8758 96.436 14.7798 96.988 14.7798C97.72 14.7798 98.32 14.9478 98.788 15.2838C99.268 15.6078 99.622 16.0398 99.85 16.5798C100.09 17.1198 100.21 17.7018 100.21 18.3258V24.4998H97.816V18.6498C97.816 18.1338 97.672 17.6898 97.384 17.3178C97.096 16.9458 96.664 16.7598 96.088 16.7598C95.644 16.7598 95.284 16.8738 95.008 17.1018C94.732 17.3178 94.528 17.5998 94.396 17.9478C94.276 18.2958 94.216 18.6618 94.216 19.0458V24.4998H91.822ZM106.455 24.6798C105.747 24.6798 105.129 24.5418 104.601 24.2658C104.073 23.9778 103.629 23.5998 103.269 23.1318C102.921 22.6518 102.657 22.1178 102.477 21.5298C102.309 20.9418 102.225 20.3418 102.225 19.7298C102.225 19.1178 102.309 18.5178 102.477 17.9298C102.657 17.3418 102.921 16.8138 103.269 16.3458C103.629 15.8658 104.073 15.4878 104.601 15.2118C105.129 14.9238 105.747 14.7798 106.455 14.7798C107.067 14.7798 107.571 14.8818 107.967 15.0858C108.363 15.2778 108.675 15.4938 108.903 15.7338C109.131 15.9618 109.287 16.1478 109.371 16.2918H109.479V10.8198H111.873V24.4998H109.479V23.1678H109.371C109.287 23.3118 109.131 23.5038 108.903 23.7438C108.675 23.9838 108.363 24.1998 107.967 24.3918C107.571 24.5838 107.067 24.6798 106.455 24.6798ZM107.085 22.7178C107.625 22.7178 108.075 22.5738 108.435 22.2858C108.795 21.9858 109.065 21.6078 109.245 21.1518C109.425 20.6958 109.515 20.2218 109.515 19.7298C109.515 19.2378 109.425 18.7638 109.245 18.3078C109.065 17.8518 108.795 17.4798 108.435 17.1918C108.075 16.8918 107.625 16.7418 107.085 16.7418C106.545 16.7418 106.089 16.8918 105.717 17.1918C105.357 17.4798 105.087 17.8518 104.907 18.3078C104.727 18.7638 104.637 19.2378 104.637 19.7298C104.637 20.2218 104.727 20.6958 104.907 21.1518C105.087 21.6078 105.357 21.9858 105.717 22.2858C106.089 22.5738 106.545 22.7178 107.085 22.7178ZM114.467 24.4998V11.1798H119.255C120.335 11.1798 121.277 11.3718 122.081 11.7558C122.897 12.1278 123.575 12.6318 124.115 13.2678C124.655 13.9038 125.057 14.6178 125.321 15.4098C125.597 16.2018 125.735 17.0118 125.735 17.8398C125.735 18.6678 125.597 19.4778 125.321 20.2698C125.057 21.0618 124.655 21.7758 124.115 22.4118C123.575 23.0478 122.897 23.5578 122.081 23.9418C121.277 24.3138 120.335 24.4998 119.255 24.4998H114.467ZM119.147 13.3218H116.915V22.3398H119.147C120.083 22.3398 120.857 22.1238 121.469 21.6918C122.081 21.2478 122.537 20.6838 122.837 19.9998C123.137 19.3038 123.287 18.5778 123.287 17.8218C123.287 17.0778 123.137 16.3638 122.837 15.6798C122.537 14.9838 122.081 14.4198 121.469 13.9878C120.857 13.5438 120.083 13.3218 119.147 13.3218ZM132.272 24.6798C131.456 24.6798 130.748 24.5418 130.148 24.2658C129.56 23.9778 129.068 23.5998 128.672 23.1318C128.288 22.6518 128 22.1178 127.808 21.5298C127.616 20.9418 127.52 20.3418 127.52 19.7298C127.52 19.1178 127.61 18.5238 127.79 17.9478C127.982 17.3598 128.264 16.8258 128.636 16.3458C129.02 15.8658 129.506 15.4878 130.094 15.2118C130.682 14.9238 131.378 14.7798 132.182 14.7798C133.046 14.7798 133.808 14.9718 134.468 15.3558C135.128 15.7398 135.644 16.3038 136.016 17.0478C136.388 17.7798 136.574 18.6918 136.574 19.7838V20.3958H129.932C129.968 21.0438 130.19 21.6078 130.598 22.0878C131.006 22.5558 131.564 22.7898 132.272 22.7898C132.68 22.7898 133.016 22.7238 133.28 22.5918C133.544 22.4598 133.748 22.3098 133.892 22.1418C134.036 21.9618 134.138 21.8118 134.198 21.6918C134.258 21.5598 134.288 21.4938 134.288 21.4938H136.502C136.502 21.4938 136.472 21.6018 136.412 21.8178C136.352 22.0218 136.238 22.2858 136.07 22.6098C135.914 22.9218 135.68 23.2398 135.368 23.5638C135.056 23.8758 134.648 24.1398 134.144 24.3558C133.64 24.5718 133.016 24.6798 132.272 24.6798ZM129.932 18.8298H134.27C134.234 18.0858 134.012 17.5338 133.604 17.1738C133.196 16.8138 132.716 16.6338 132.164 16.6338C131.552 16.6338 131.042 16.8318 130.634 17.2278C130.226 17.6118 129.992 18.1458 129.932 18.8298ZM142.52 24.6798C141.74 24.6798 141.098 24.5778 140.594 24.3738C140.09 24.1578 139.688 23.8938 139.388 23.5818C139.1 23.2578 138.884 22.9398 138.74 22.6278C138.596 22.3158 138.5 22.0578 138.452 21.8538C138.416 21.6378 138.398 21.5298 138.398 21.5298H140.666C140.666 21.5298 140.684 21.5958 140.72 21.7278C140.768 21.8598 140.852 22.0158 140.972 22.1958C141.104 22.3638 141.302 22.5138 141.566 22.6458C141.83 22.7778 142.178 22.8438 142.61 22.8438C143.126 22.8438 143.498 22.7358 143.726 22.5198C143.954 22.2918 144.068 22.0398 144.068 21.7638C144.068 21.4998 143.966 21.2898 143.762 21.1338C143.57 20.9658 143.282 20.8398 142.898 20.7558L141.584 20.4858C141.056 20.3778 140.564 20.2218 140.108 20.0178C139.652 19.8018 139.28 19.5138 138.992 19.1538C138.704 18.7818 138.56 18.3078 138.56 17.7318C138.56 16.8798 138.884 16.1778 139.532 15.6258C140.18 15.0618 141.062 14.7798 142.178 14.7798C142.886 14.7798 143.468 14.8758 143.924 15.0678C144.392 15.2598 144.764 15.4998 145.04 15.7878C145.328 16.0758 145.538 16.3638 145.67 16.6518C145.814 16.9398 145.904 17.1858 145.94 17.3898C145.988 17.5818 146.012 17.6778 146.012 17.6778H143.816C143.816 17.6778 143.798 17.6238 143.762 17.5158C143.726 17.3958 143.648 17.2638 143.528 17.1198C143.42 16.9758 143.252 16.8498 143.024 16.7418C142.808 16.6218 142.514 16.5618 142.142 16.5618C141.638 16.5618 141.278 16.6698 141.062 16.8858C140.858 17.1018 140.756 17.3298 140.756 17.5698C140.756 17.8338 140.87 18.0378 141.098 18.1818C141.326 18.3258 141.62 18.4338 141.98 18.5058L143.222 18.7758C144.11 18.9558 144.836 19.2678 145.4 19.7118C145.976 20.1558 146.264 20.7978 146.264 21.6378C146.264 22.2018 146.114 22.7178 145.814 23.1858C145.526 23.6418 145.1 24.0078 144.536 24.2838C143.984 24.5478 143.312 24.6798 142.52 24.6798ZM148.27 24.4998V10.8198H150.664V18.7398L154.03 14.9598H156.856L152.896 19.3158L156.982 24.4998H154.12L150.664 20.1078V24.4998H148.27Z" fill="white"/>
<defs>
<linearGradient id="paint0_linear_1_615" x1="18.671" y1="3.44541e-05" x2="18.671" y2="36" gradientUnits="userSpaceOnUse">
<stop stop-color="white"/>
<stop offset="1" stop-color="#F8F8F8"/>
</linearGradient>
</defs>
</svg>