<svg width="269" height="48" viewBox="0 0 269 48" fill="none" xmlns="http://www.w3.org/2000/svg">
<path d="M208.64 30L212.768 18.1599H215.168L219.312 30H217.344L216.432 27.3401H211.52L210.608 30H208.64ZM212.08 25.6799H215.872L213.984 20.1599L212.08 25.6799ZM220.599 30V21.52H222.423V22.75H222.519C222.594 22.6 222.722 22.42 222.903 22.21C223.084 21.98 223.335 21.7901 223.655 21.6201C223.986 21.4501 224.402 21.3601 224.903 21.3601C225.532 21.3601 226.06 21.5 226.487 21.79C226.914 22.08 227.234 22.4599 227.447 22.9399C227.671 23.4199 227.783 23.95 227.783 24.53V30H225.959V24.72C225.959 24.21 225.815 23.7799 225.527 23.4199C225.25 23.0699 224.834 22.8999 224.279 22.8999C223.842 22.8999 223.484 23.01 223.207 23.23C222.94 23.45 222.743 23.7301 222.615 24.0801C222.487 24.4201 222.423 24.7899 222.423 25.1799V30H220.599ZM229.486 30V21.52H231.31V22.75H231.406C231.481 22.6 231.609 22.42 231.79 22.21C231.971 21.98 232.222 21.7901 232.542 21.6201C232.873 21.4501 233.289 21.3601 233.79 21.3601C234.419 21.3601 234.947 21.5 235.374 21.79C235.801 22.08 236.121 22.4599 236.334 22.9399C236.558 23.4199 236.67 23.95 236.67 24.53V30H234.846V24.72C234.846 24.21 234.702 23.7799 234.414 23.4199C234.137 23.0699 233.721 22.8999 233.166 22.8999C232.729 22.8999 232.371 23.01 232.094 23.23C231.827 23.45 231.63 23.7301 231.502 24.0801C231.374 24.4201 231.31 24.7899 231.31 25.1799V30H229.486ZM241.093 30.1599C240.24 30.1599 239.573 29.8901 239.093 29.3601C238.613 28.8301 238.373 28.12 238.373 27.23V21.52H240.197V27.01C240.197 27.52 240.33 27.92 240.597 28.21C240.874 28.49 241.248 28.6201 241.717 28.6201C242.176 28.6201 242.544 28.51 242.821 28.27C243.098 28.04 243.296 27.7399 243.413 27.3799C243.541 26.9999 243.605 26.62 243.605 26.22V21.52H245.429V30H243.605V28.78H243.509C243.424 28.94 243.285 29.1401 243.093 29.3601C242.912 29.5701 242.656 29.7599 242.325 29.9199C242.005 30.0799 241.594 30.1599 241.093 30.1599ZM250.799 21.3601C251.332 21.3601 251.775 21.4501 252.127 21.6201C252.489 21.7901 252.777 21.98 252.991 22.21C253.204 22.43 253.359 22.62 253.455 22.78H253.551V21.52H255.375V30H253.551V28.74H253.455C253.359 28.9 253.204 29.0901 252.991 29.3101C252.777 29.5401 252.489 29.7299 252.127 29.8999C251.775 30.0699 251.332 30.1599 250.799 30.1599C250.159 30.1599 249.599 30.04 249.119 29.79C248.649 29.54 248.255 29.2 247.935 28.78C247.615 28.36 247.375 27.8801 247.215 27.3601C247.065 26.8401 246.991 26.3 246.991 25.76C246.991 25.22 247.065 24.6799 247.215 24.1599C247.375 23.6399 247.615 23.17 247.935 22.75C248.255 22.33 248.649 21.99 249.119 21.74C249.599 21.49 250.159 21.3601 250.799 21.3601ZM251.199 22.8799C250.676 22.8799 250.239 23.0201 249.887 23.3101C249.535 23.5901 249.268 23.9499 249.087 24.3799C248.916 24.8199 248.831 25.28 248.831 25.76C248.831 26.24 248.916 26.6999 249.087 27.1399C249.268 27.5699 249.535 27.94 249.887 28.22C250.239 28.5 250.676 28.6399 251.199 28.6399C251.721 28.6399 252.153 28.5 252.495 28.22C252.847 27.94 253.108 27.5699 253.279 27.1399C253.46 26.6999 253.551 26.24 253.551 25.76C253.551 25.28 253.46 24.8199 253.279 24.3799C253.108 23.9499 252.847 23.5901 252.495 23.3101C252.153 23.0201 251.721 22.8799 251.199 22.8799ZM257.26 30L257.276 17.8401H259.084V30H257.26ZM261.388 33.1201C261.121 33.1201 260.902 33.1101 260.732 33.0901C260.561 33.0701 260.476 33.0601 260.476 33.0601V31.54C260.476 31.54 260.561 31.54 260.732 31.55C260.902 31.57 261.089 31.5801 261.292 31.5801C261.878 31.5801 262.358 31.47 262.732 31.25C263.116 31.03 263.441 30.6601 263.708 30.1101L260.476 21.52H262.332L264.62 27.8701L266.908 21.52H268.796L265.596 29.8999C265.169 30.9999 264.625 31.8101 263.964 32.3401C263.302 32.8601 262.444 33.1201 261.388 33.1201Z" fill="#343434"/>
<path d="M160 0H108C94.7452 0 84 10.7452 84 24C84 37.2548 94.7452 48 108 48H160C173.255 48 184 37.2548 184 24C184 10.7452 173.255 0 160 0Z" fill="#F2F2FF"/>
<path d="M108 40C116.837 40 124 32.8366 124 24C124 15.1634 116.837 8 108 8C99.1634 8 92 15.1634 92 24C92 32.8366 99.1634 40 108 40Z" fill="#152C5B"/>
<path d="M0.216064 30V18.1599H2.69604L5.91205 24.8999L9.17609 18.1599H11.6241V30H9.78406V20.9399L6.79205 27.0601H5.04803L2.05609 20.9099V30H0.216064ZM17.587 30.1599C16.659 30.1599 15.875 29.95 15.235 29.54C14.605 29.12 14.125 28.5799 13.795 27.8999C13.475 27.2299 13.3151 26.52 13.3151 25.76C13.3151 25 13.475 24.2901 13.795 23.6201C14.125 22.9401 14.605 22.4 15.235 21.98C15.875 21.57 16.659 21.3601 17.587 21.3601C18.504 21.3601 19.277 21.57 19.907 21.98C20.547 22.4 21.027 22.9401 21.347 23.6201C21.677 24.2901 21.8431 25 21.8431 25.76C21.8431 26.52 21.677 27.2299 21.347 27.8999C21.027 28.5799 20.547 29.12 19.907 29.54C19.277 29.95 18.504 30.1599 17.587 30.1599ZM17.587 28.6101C18.109 28.6101 18.547 28.47 18.899 28.21C19.261 27.94 19.5331 27.5899 19.7151 27.1499C19.9071 26.7099 20.0031 26.25 20.0031 25.76C20.0031 25.26 19.9071 24.7901 19.7151 24.3701C19.5331 23.9301 19.261 23.5801 18.899 23.3101C18.547 23.0501 18.109 22.9099 17.587 22.9099C17.064 22.9099 16.621 23.0501 16.259 23.3101C15.896 23.5801 15.6241 23.9301 15.4431 24.3701C15.2611 24.7901 15.1711 25.26 15.1711 25.76C15.1711 26.25 15.2611 26.7099 15.4431 27.1499C15.6241 27.5899 15.896 27.94 16.259 28.21C16.621 28.47 17.064 28.6101 17.587 28.6101ZM23.3771 30V21.52H25.201V22.75H25.2971C25.3711 22.6 25.4991 22.42 25.6811 22.21C25.8621 21.98 26.113 21.7901 26.433 21.6201C26.763 21.4501 27.1791 21.3601 27.6811 21.3601C28.3101 21.3601 28.8381 21.5 29.2651 21.79C29.6911 22.08 30.011 22.4599 30.225 22.9399C30.449 23.4199 30.561 23.95 30.561 24.53V30H28.7371V24.72C28.7371 24.21 28.5931 23.7799 28.3051 23.4199C28.0271 23.0699 27.6111 22.8999 27.0571 22.8999C26.6191 22.8999 26.262 23.01 25.985 23.23C25.718 23.45 25.5211 23.7301 25.3931 24.0801C25.2651 24.4201 25.201 24.7899 25.201 25.1799V30H23.3771ZM35.7261 30.1599C35.0541 30.1599 34.515 30.04 34.11 29.79C33.704 29.55 33.411 29.2201 33.23 28.8201C33.059 28.4001 32.9741 27.95 32.9741 27.47V22.99H31.4861V21.52H32.9741V19.4099H34.798V21.52H36.782V22.99H34.798V27.4399C34.798 28.2399 35.24 28.6399 36.126 28.6399C36.35 28.6399 36.5581 28.6201 36.7501 28.5901C36.9421 28.5601 37.0381 28.54 37.0381 28.54V30.03C37.0381 30.03 36.9041 30.0501 36.6381 30.1001C36.3821 30.1401 36.0781 30.1599 35.7261 30.1599ZM38.6541 30V17.8401H40.4781V22.75H40.574C40.649 22.6 40.7771 22.42 40.9581 22.21C41.1391 21.98 41.3901 21.7901 41.7101 21.6201C42.0411 21.4501 42.4571 21.3601 42.9581 21.3601C43.5871 21.3601 44.1151 21.5 44.5421 21.79C44.9691 22.08 45.2891 22.4599 45.5021 22.9399C45.7261 23.4199 45.8381 23.95 45.8381 24.53V30H44.014V24.72C44.014 24.21 43.87 23.7799 43.582 23.4199C43.305 23.0699 42.889 22.8999 42.334 22.8999C41.897 22.8999 41.5391 23.01 41.2621 23.23C40.9951 23.45 40.798 23.7301 40.67 24.0801C40.542 24.4201 40.4781 24.7899 40.4781 25.1799V30H38.6541ZM47.6971 30L47.7131 17.8401H49.5211V30H47.6971ZM51.8251 33.1201C51.5591 33.1201 51.3401 33.1101 51.1691 33.0901C50.9991 33.0701 50.9131 33.0601 50.9131 33.0601V31.54C50.9131 31.54 50.9991 31.54 51.1691 31.55C51.3401 31.57 51.5271 31.5801 51.7291 31.5801C52.3161 31.5801 52.7961 31.47 53.1691 31.25C53.5531 31.03 53.8791 30.6601 54.1451 30.1101L50.9131 21.52H52.769L55.0571 27.8701L57.345 21.52H59.233L56.0331 29.8999C55.6071 30.9999 55.0631 31.8101 54.4011 32.3401C53.7401 32.8601 52.8811 33.1201 51.8251 33.1201Z" fill="#343434"/>
</svg>
