<svg width="125" height="20" viewBox="0 0 125 20" fill="none" xmlns="http://www.w3.org/2000/svg">
<path d="M8.75601 5.46997H10.746C11.99 5.46997 13.284 5.72003 13.284 7.16003C13.284 8.41003 12.488 9.30005 10.149 9.30005H7.95999L8.75601 5.46997ZM0 19.55H5.771L6.965 13.83H10.896C15.871 13.83 19.104 10.55 19.104 6.71997C19.104 2.53997 16.866 0.599976 13.383 0.599976H3.98001L0 19.55Z" fill="#152C5B"/>
<path d="M26.219 7.10999L26.915 12.79H23.284L26.219 7.10999ZM13.731 19.55H19.702L21.144 16.87H27.313L27.612 19.55H33.333L30.448 0.599976H24.677L13.731 19.55Z" fill="#152C5B"/>
<path d="M35.771 12.59L31.692 0.599976H37.562L39.353 7.66003L43.98 0.599976H50.846L41.592 12.54L40.149 19.55H34.328L35.771 12.59Z" fill="#152C5B"/>
<path d="M64.7759 12.34C64.4279 14.28 62.935 20 55.025 20C49.502 20 46.866 16.42 46.866 11.34C46.866 5.21997 50.6969 0.0999756 57.1639 0.0999756C61.3929 0.0999756 65.1739 1.93999 65.2739 7.60999H59.7509C59.8009 5.81999 58.9549 4.82996 57.1639 4.82996C53.9299 4.82996 52.736 8.55999 52.736 11.24C52.736 12.84 53.1339 15.22 55.8209 15.22C57.6619 15.22 58.7059 13.98 59.0549 12.29L64.7759 12.34Z" fill="#152C5B"/>
<path d="M68.159 0.599976H74.03L72.637 7.16003H77.96L79.353 0.599976H85.224L81.244 19.55H75.423L76.965 12.04H71.642L70.05 19.55H64.229L68.159 0.599976Z" fill="#152C5B"/>
<path d="M86.766 0.599976H102.438L101.443 5.46997H91.592L91.095 7.81006H100.249L99.304 12.34H90.149L89.652 14.6801H99.702L98.706 19.55H82.786L86.766 0.599976Z" fill="#152C5B"/>
<path d="M106.468 9.5L102.09 0.599976H108.458L110.299 5.52002L114.08 0.599976H120.995L113.085 9.5L117.711 19.55H111.144L109.055 14.28L104.627 19.55H97.463L106.468 9.5Z" fill="#152C5B"/>
<path d="M121.741 1.43994C121.741 0.749941 122.239 0.199951 122.935 0.199951C123.582 0.199951 124.129 0.749941 124.129 1.43994C124.129 2.13994 123.632 2.68994 122.935 2.68994C122.289 2.68994 121.741 2.13994 121.741 1.43994ZM121.493 1.43994C121.493 2.28994 122.139 2.89001 122.935 2.89001C123.731 2.89001 124.378 2.28994 124.378 1.43994C124.378 0.649941 123.731 0 122.935 0C122.139 0 121.493 0.649941 121.493 1.43994ZM122.388 2.29004H122.637V1.58997H122.886L123.333 2.33997H123.632L123.134 1.58997C123.383 1.58997 123.582 1.44001 123.582 1.14001C123.582 0.800015 123.383 0.650024 122.985 0.650024H122.388V2.29004ZM122.637 0.849976H122.985C123.184 0.849976 123.333 0.899966 123.333 1.08997C123.333 1.33997 123.134 1.39001 122.886 1.39001H122.637V0.849976Z" fill="#152C5B"/>
</svg>
