<svg width="64" height="64" viewBox="0 0 64 64" fill="none" xmlns="http://www.w3.org/2000/svg">
<path d="M49 0H15C6.71573 0 0 6.71573 0 15V49C0 57.2843 6.71573 64 15 64H49C57.2843 64 64 57.2843 64 49V15C64 6.71573 57.2843 0 49 0Z" fill="#F2F2FF"/>
<path d="M45.918 26.41C47.179 29.54 47.343 33.02 46.383 36.26C45.422 39.5 43.395 42.32 40.628 44.27C37.862 46.22 34.52 47.17 31.144 46.98C29.72 46.89 28.326 46.61 27 46.14M35.333 17.37C32.249 16.67 29.016 16.96 26.098 18.21C22.989 19.54 20.421 21.88 18.81 24.86C18.537 25.36 18.294 25.88 18.082 26.41C17.043 28.99 16.74 31.83 17.226 34.59C17.407 35.63 17.695 36.63 18.082 37.59" stroke="#6A4BFF" stroke-width="2.5" stroke-linecap="round"/>
<path d="M38.6669 22.0033C40.5079 22.0033 42.0003 20.511 42.0003 18.67C42.0003 16.8291 40.5079 15.3367 38.6669 15.3367C36.826 15.3367 35.3336 16.8291 35.3336 18.67C35.3336 20.511 36.826 22.0033 38.6669 22.0033Z" stroke="#6A4BFF" stroke-width="2.5"/>
<path d="M23.6669 48.6633C25.5079 48.6633 27.0003 47.1709 27.0003 45.33C27.0003 43.489 25.5079 41.9967 23.6669 41.9967C21.826 41.9967 20.3336 43.489 20.3336 45.33C20.3336 47.1709 21.826 48.6633 23.6669 48.6633Z" stroke="#6A4BFF" stroke-width="2.5"/>
<path d="M27.667 28.68L31.396 27.2299C31.784 27.0799 32.216 27.0799 32.604 27.2299L36.333 28.68C36.735 28.84 37 29.23 37 29.66V31.25C37 33.48 35.972 35.5799 34.215 36.9399C32.912 37.9599 31.088 37.9599 29.785 36.9399C28.028 35.5799 27 33.48 27 31.25V29.66C27 29.23 27.265 28.84 27.667 28.68Z" stroke="#6A4BFF" stroke-width="2.5" stroke-linecap="round" stroke-linejoin="round"/>
</svg>
