<svg width="64" height="64" viewBox="0 0 64 64" fill="none" xmlns="http://www.w3.org/2000/svg">
<path d="M49 0H15C6.71573 0 0 6.71573 0 15V49C0 57.2843 6.71573 64 15 64H49C57.2843 64 64 57.2843 64 49V15C64 6.71573 57.2843 0 49 0Z" fill="#F2F2FF"/>
<path d="M32 47C40.2843 47 47 40.2843 47 32C47 23.7157 40.2843 17 32 17C23.7157 17 17 23.7157 17 32C17 40.2843 23.7157 47 32 47Z" stroke="#6A4BFF" stroke-width="2.5"/>
<path d="M32 40.3334C36.6024 40.3334 40.3334 36.6024 40.3334 32C40.3334 27.3976 36.6024 23.6666 32 23.6666C27.3976 23.6666 23.6666 27.3976 23.6666 32C23.6666 36.6024 27.3976 40.3334 32 40.3334Z" stroke="#6A4BFF" stroke-width="2.5"/>
<path d="M38.67 38.67L42 42" stroke="#6A4BFF" stroke-width="2.5" stroke-linecap="round" stroke-linejoin="round"/>
<path d="M25.33 38.67L22 42" stroke="#6A4BFF" stroke-width="2.5" stroke-linecap="round" stroke-linejoin="round"/>
<path d="M25.33 25.33L22 22" stroke="#6A4BFF" stroke-width="2.5" stroke-linecap="round" stroke-linejoin="round"/>
<path d="M38.67 25.33L42 22" stroke="#6A4BFF" stroke-width="2.5" stroke-linecap="round" stroke-linejoin="round"/>
</svg>
