<svg width="64" height="64" viewBox="0 0 64 64" fill="none" xmlns="http://www.w3.org/2000/svg">
<path d="M49 0H15C6.71573 0 0 6.71573 0 15V49C0 57.2843 6.71573 64 15 64H49C57.2843 64 64 57.2843 64 49V15C64 6.71573 57.2843 0 49 0Z" fill="#F2F2FF"/>
<path d="M22 44.92C22.69 44.92 23.25 44.36 23.25 43.67C23.25 42.98 22.69 42.42 22 42.42V44.92ZM23.667 28.67V29.92C24.357 29.92 24.917 29.36 24.917 28.67H23.667ZM40.333 28.67H39.083C39.083 29.36 39.643 29.92 40.333 29.92V28.67ZM42 42.42C41.31 42.42 40.75 42.98 40.75 43.67C40.75 44.36 41.31 44.92 42 44.92V42.42ZM22.833 29.92H23.667V27.42H22.833V29.92ZM24.917 28.67V27H22.417V28.67H24.917ZM39.083 27V28.67H41.583V27H39.083ZM40.333 29.92H41.167V27.42H40.333V29.92ZM47.417 36.17C47.417 37.99 46.86 39.57 45.933 40.66C45.022 41.74 43.704 42.42 42 42.42V44.92C44.438 44.92 46.454 43.92 47.841 42.28C49.211 40.66 49.917 38.48 49.917 36.17H47.417ZM32 19.92C35.912 19.92 39.083 23.09 39.083 27H41.583C41.583 21.71 37.293 17.42 32 17.42V19.92ZM24.917 27C24.917 23.09 28.088 19.92 32 19.92V17.42C26.707 17.42 22.417 21.71 22.417 27H24.917ZM41.167 29.92C44.618 29.92 47.417 32.71 47.417 36.17H49.917C49.917 31.33 45.999 27.42 41.167 27.42V29.92ZM16.583 36.17C16.583 32.71 19.382 29.92 22.833 29.92V27.42C18.001 27.42 14.083 31.33 14.083 36.17H16.583ZM22 42.42C20.296 42.42 18.978 41.74 18.067 40.66C17.14 39.57 16.583 37.99 16.583 36.17H14.083C14.083 38.48 14.789 40.66 16.159 42.28C17.546 43.92 19.562 44.92 22 44.92V42.42Z" fill="#6A4BFF"/>
<path d="M27 44.5V37.83C27 37.37 27.373 37 27.833 37H36.167C36.627 37 37 37.37 37 37.83V44.5C37 44.96 36.627 45.33 36.167 45.33H27.833C27.373 45.33 27 44.96 27 44.5Z" stroke="#6A4BFF" stroke-width="2.5" stroke-linecap="round" stroke-linejoin="round"/>
<path d="M28.667 37V35.33C28.667 33.49 30.159 32 32 32C33.841 32 35.333 33.49 35.333 35.33V37" stroke="#6A4BFF" stroke-width="2.5" stroke-linecap="round" stroke-linejoin="round"/>
</svg>
