<svg width="155" height="53" viewBox="0 0 155 53" fill="none" xmlns="http://www.w3.org/2000/svg">
<path d="M14.576 52.3799V47.5601C11.739 47.3401 9.40499 46.74 7.57599 45.77C5.78399 44.76 4.38398 43.6 3.37598 42.3C2.36798 40.9501 1.64002 39.6499 1.19202 38.3799C0.744017 37.0699 0.46399 36.0099 0.35199 35.1799C0.27699 34.3299 0.23999 33.8999 0.23999 33.8999H8.41602C8.41602 33.8999 8.45302 34.19 8.52802 34.79C8.64002 35.35 8.88298 36.0401 9.25598 36.8601C9.62898 37.6901 10.227 38.4499 11.048 39.1599C11.907 39.8699 13.083 40.3699 14.576 40.6699V29.02L14.184 28.97C12.691 28.63 11.179 28.1999 9.64801 27.6799C8.15501 27.1599 6.77303 26.4701 5.50403 25.6101C4.27203 24.7501 3.26398 23.65 2.47998 22.3C1.73298 20.96 1.35999 19.28 1.35999 17.26C1.35999 14.84 1.93901 12.77 3.09601 11.05C4.29101 9.29005 5.87702 7.9099 7.85602 6.8999C9.87202 5.8999 12.112 5.28006 14.576 5.06006V0.300049H19.056V5.16992C21.483 5.42992 23.48 6.02996 25.048 6.95996C26.653 7.85996 27.923 8.9001 28.856 10.1001C29.789 11.2501 30.48 12.4101 30.928 13.5701C31.376 14.6901 31.656 15.6201 31.768 16.3701C31.917 17.1101 31.992 17.49 31.992 17.49H23.928C23.928 17.49 23.872 17.2601 23.76 16.8201C23.685 16.3701 23.48 15.8299 23.144 15.1899C22.845 14.5199 22.36 13.89 21.688 13.29C21.053 12.65 20.176 12.1899 19.056 11.8899V22.7L19.784 22.8601C21.053 23.1601 22.416 23.55 23.872 24.04C25.365 24.49 26.747 25.14 28.016 26C29.323 26.86 30.368 28.02 31.152 29.47C31.973 30.89 32.384 32.6801 32.384 34.8501C32.384 37.1601 31.824 39.2301 30.704 41.0601C29.621 42.8601 28.072 44.3099 26.056 45.4299C24.077 46.5499 21.744 47.24 19.056 47.5V52.3799H14.576ZM9.31201 16.9299C9.31201 18.1599 9.74098 19.1499 10.6 19.8999C11.459 20.6099 12.784 21.1999 14.576 21.6899V11.6101C12.933 11.9101 11.645 12.54 10.712 13.51C9.77898 14.48 9.31201 15.6199 9.31201 16.9299ZM24.376 35.02C24.376 33.63 23.909 32.5701 22.976 31.8201C22.08 31.0801 20.773 30.48 19.056 30.03V40.6699C20.661 40.3399 21.949 39.6599 22.92 38.6599C23.891 37.6499 24.376 36.43 24.376 35.02ZM53.351 5.56006V47H44.727V17.3201L36.719 17.3799V12.1699L38.007 11.78C40.359 11.1 42.263 10.34 43.719 9.47998C45.175 8.61998 46.575 7.48006 47.919 6.06006L48.311 5.56006H53.351ZM61.732 47V41.0601L68.9 34.96C71.887 32.46 74.444 30.3301 76.572 28.5801C78.7 26.8201 80.324 25.1799 81.444 23.6499C82.564 22.1199 83.124 20.47 83.124 18.72C83.124 17.38 82.807 16.2601 82.172 15.3601C81.538 14.4301 80.716 13.74 79.708 13.29C78.738 12.8 77.711 12.5601 76.628 12.5601C75.322 12.5601 74.22 12.8 73.324 13.29C72.466 13.77 71.775 14.4099 71.252 15.1899C70.767 15.9399 70.412 16.72 70.188 17.54C69.964 18.37 69.852 19.0699 69.852 19.6699H61.564C61.564 18.0999 61.863 16.48 62.46 14.8C63.058 13.08 63.972 11.5 65.204 10.04C66.436 8.55004 68.023 7.3299 69.964 6.3999C71.906 5.4699 74.22 5 76.908 5C79.634 5 82.116 5.54012 84.356 6.62012C86.596 7.67012 88.388 9.17991 89.732 11.1599C91.114 13.1399 91.804 15.4699 91.804 18.1599C91.804 20.6999 91.17 23.0101 89.9 25.1001C88.668 27.1601 86.932 29.1699 84.692 31.1499C82.452 33.0899 79.876 35.2 76.964 37.48L74.612 39.4399H92.364V47H61.732Z" fill="white"/>
<path d="M96.6079 52.5801L102.16 36.78H103.872L98.304 52.5801H96.6079ZM105.482 50V41.52H107.306V42.72H107.37C107.466 42.55 107.605 42.3599 107.786 42.1399C107.978 41.9299 108.229 41.7501 108.538 41.6001C108.847 41.4401 109.237 41.3601 109.706 41.3601C110.335 41.3601 110.858 41.5101 111.274 41.8101C111.69 42.1101 111.999 42.5 112.202 42.99H112.234C112.458 42.57 112.783 42.1901 113.21 41.8601C113.637 41.5301 114.202 41.3601 114.906 41.3601C115.503 41.3601 116.01 41.5 116.426 41.79C116.842 42.07 117.151 42.4499 117.354 42.9299C117.567 43.3999 117.674 43.93 117.674 44.53V50H115.85V44.78C115.85 44.23 115.717 43.7799 115.45 43.4199C115.183 43.0699 114.789 42.8999 114.266 42.8999C113.839 42.8999 113.493 43.01 113.226 43.25C112.97 43.48 112.783 43.7799 112.666 44.1299C112.549 44.4699 112.49 44.8199 112.49 45.1699V50H110.666V44.78C110.666 44.23 110.533 43.7799 110.266 43.4199C109.999 43.0699 109.605 42.8999 109.082 42.8999C108.655 42.8999 108.309 43.01 108.042 43.25C107.786 43.48 107.599 43.7799 107.482 44.1299C107.365 44.4699 107.306 44.8199 107.306 45.1699V50H105.482ZM124.052 50.1599C123.124 50.1599 122.34 49.95 121.7 49.54C121.07 49.12 120.59 48.5799 120.26 47.8999C119.94 47.2299 119.78 46.52 119.78 45.76C119.78 45 119.94 44.2901 120.26 43.6201C120.59 42.9401 121.07 42.4 121.7 41.98C122.34 41.57 123.124 41.3601 124.052 41.3601C124.969 41.3601 125.742 41.57 126.372 41.98C127.012 42.4 127.492 42.9401 127.812 43.6201C128.142 44.2901 128.308 45 128.308 45.76C128.308 46.52 128.142 47.2299 127.812 47.8999C127.492 48.5799 127.012 49.12 126.372 49.54C125.742 49.95 124.969 50.1599 124.052 50.1599ZM124.052 48.6101C124.574 48.6101 125.012 48.47 125.364 48.21C125.726 47.94 125.998 47.5899 126.18 47.1499C126.372 46.7099 126.468 46.25 126.468 45.76C126.468 45.26 126.372 44.7901 126.18 44.3701C125.998 43.9301 125.726 43.5801 125.364 43.3101C125.012 43.0501 124.574 42.9099 124.052 42.9099C123.529 42.9099 123.086 43.0501 122.724 43.3101C122.361 43.5801 122.089 43.9301 121.908 44.3701C121.726 44.7901 121.636 45.26 121.636 45.76C121.636 46.25 121.726 46.7099 121.908 47.1499C122.089 47.5899 122.361 47.94 122.724 48.21C123.086 48.47 123.529 48.6101 124.052 48.6101ZM130.428 50V41.52H132.252V42.75H132.348C132.422 42.6 132.55 42.42 132.732 42.21C132.913 41.98 133.164 41.7901 133.484 41.6201C133.814 41.4501 134.23 41.3601 134.732 41.3601C135.361 41.3601 135.889 41.5 136.316 41.79C136.742 42.08 137.062 42.4599 137.276 42.9399C137.5 43.4199 137.612 43.95 137.612 44.53V50H135.788V44.72C135.788 44.21 135.644 43.7799 135.356 43.4199C135.078 43.0699 134.662 42.8999 134.108 42.8999C133.67 42.8999 133.313 43.01 133.036 43.23C132.769 43.45 132.572 43.7301 132.444 44.0801C132.316 44.4201 132.252 44.7899 132.252 45.1799V50H130.428ZM143.363 50.1599C142.691 50.1599 142.152 50.04 141.747 49.79C141.341 49.55 141.048 49.2201 140.867 48.8201C140.696 48.4001 140.611 47.95 140.611 47.47V42.99H139.123V41.52H140.611V39.4099H142.435V41.52H144.419V42.99H142.435V47.4399C142.435 48.2399 142.877 48.6399 143.763 48.6399C143.987 48.6399 144.195 48.6201 144.387 48.5901C144.579 48.5601 144.675 48.54 144.675 48.54V50.03C144.675 50.03 144.541 50.0501 144.275 50.1001C144.019 50.1401 143.715 50.1599 143.363 50.1599ZM146.877 50V37.8401H148.701V42.75H148.797C148.872 42.6 149 42.42 149.181 42.21C149.363 41.98 149.613 41.7901 149.933 41.6201C150.264 41.4501 150.68 41.3601 151.181 41.3601C151.811 41.3601 152.339 41.5 152.765 41.79C153.192 42.08 153.512 42.4599 153.725 42.9399C153.949 43.4199 154.061 43.95 154.061 44.53V50H152.237V44.72C152.237 44.21 152.093 43.7799 151.805 43.4199C151.528 43.0699 151.112 42.8999 150.557 42.8999C150.12 42.8999 149.763 43.01 149.485 43.23C149.219 43.45 149.021 43.7301 148.893 44.0801C148.765 44.4201 148.701 44.7899 148.701 45.1799V50H146.877Z" fill="#969699"/>
</svg>
