<svg width="157" height="53" viewBox="0 0 157 53" fill="none" xmlns="http://www.w3.org/2000/svg">
<path d="M14.58 52.3799V47.5601C11.74 47.3401 9.40996 46.74 7.57996 45.77C5.77996 44.76 4.38 43.6 3.38 42.3C2.37 40.9501 1.63994 39.6499 1.18994 38.3799C0.739941 37.0699 0.459976 36.0099 0.349976 35.1799C0.279976 34.3299 0.23999 33.8999 0.23999 33.8999H8.42004C8.42004 33.8999 8.45003 34.19 8.53003 34.79C8.64003 35.35 8.88001 36.0401 9.26001 36.8601C9.63001 37.6901 10.23 38.4499 11.05 39.1599C11.91 39.8699 13.08 40.3699 14.58 40.6699V29.02L14.1801 28.97C12.6901 28.63 11.18 28.1999 9.65002 27.6799C8.15002 27.1599 6.77 26.4701 5.5 25.6101C4.27 24.7501 3.25998 23.65 2.47998 22.3C1.72998 20.96 1.35999 19.28 1.35999 17.26C1.35999 14.84 1.93998 12.77 3.09998 11.05C4.28998 9.29005 5.87999 7.9099 7.85999 6.8999C9.86999 5.8999 12.11 5.28006 14.58 5.06006V0.300049H19.0601V5.16992C21.4801 5.42992 23.48 6.02996 25.05 6.95996C26.65 7.85996 27.92 8.9001 28.86 10.1001C29.79 11.2501 30.4801 12.4101 30.9301 13.5701C31.3801 14.6901 31.66 15.6201 31.77 16.3701C31.92 17.1101 31.99 17.49 31.99 17.49H23.9301C23.9301 17.49 23.87 17.2601 23.76 16.8201C23.69 16.3701 23.48 15.8299 23.14 15.1899C22.85 14.5199 22.3599 13.89 21.6899 13.29C21.0499 12.65 20.1801 12.1899 19.0601 11.8899V22.7L19.78 22.8601C21.05 23.1601 22.42 23.55 23.87 24.04C25.37 24.49 26.75 25.14 28.02 26C29.32 26.86 30.37 28.02 31.15 29.47C31.97 30.89 32.38 32.6801 32.38 34.8501C32.38 37.1601 31.82 39.2301 30.7 41.0601C29.62 42.8601 28.0701 44.3099 26.0601 45.4299C24.0801 46.5499 21.7401 47.24 19.0601 47.5V52.3799H14.58ZM9.31006 16.9299C9.31006 18.1599 9.73998 19.1499 10.6 19.8999C11.46 20.6099 12.78 21.1999 14.58 21.6899V11.6101C12.93 11.9101 11.65 12.54 10.71 13.51C9.77996 14.48 9.31006 15.6199 9.31006 16.9299ZM24.38 35.02C24.38 33.63 23.91 32.5701 22.98 31.8201C22.08 31.0801 20.7701 30.48 19.0601 30.03V40.6699C20.6601 40.3399 21.95 39.6599 22.92 38.6599C23.89 37.6499 24.38 36.43 24.38 35.02ZM53.35 5.56006V47H44.73V17.3201L36.72 17.3799V12.1699L38.01 11.78C40.36 11.1 42.26 10.34 43.72 9.47998C45.18 8.61998 46.58 7.48006 47.92 6.06006L48.3101 5.56006H53.35ZM78.76 47.5601C75.88 47.5601 73.38 47.06 71.25 46.05C69.12 45 67.3501 43.6001 65.9301 41.8501C64.5501 40.0601 63.52 38.0401 62.85 35.8C62.18 33.5201 61.84 31.1499 61.84 28.6899C61.84 25.9599 62.26 23.22 63.08 20.46C63.94 17.66 65.26 15.1 67.05 12.78C68.8801 10.43 71.22 8.54988 74.05 7.12988C76.89 5.70988 80.32 5 84.36 5C86 5 87.42 5.11009 88.61 5.34009C89.81 5.52009 90.4 5.62012 90.4 5.62012V13.29C90.4 13.29 90.09 13.2499 89.45 13.1799C88.86 13.0599 88.09 12.9501 87.16 12.8401C86.22 12.7301 85.29 12.6699 84.36 12.6699C81.48 12.6699 79.07 13.2499 77.13 14.4099C75.19 15.5699 73.7 17.0401 72.65 18.8301C71.64 20.6201 71.05 22.51 70.86 24.49C71.23 23.85 71.81 23.1599 72.6 22.4199C73.38 21.6299 74.43 20.9599 75.73 20.3999C77.08 19.8399 78.76 19.5601 80.77 19.5601C83.76 19.5601 86.26 20.21 88.28 21.52C90.29 22.79 91.8001 24.45 92.8101 26.5C93.8201 28.56 94.3199 30.6999 94.3199 32.9399C94.3199 34.7399 93.9899 36.51 93.3199 38.26C92.6799 39.98 91.71 41.55 90.4 42.97C89.14 44.35 87.53 45.4701 85.59 46.3301C83.65 47.1501 81.37 47.5601 78.76 47.5601ZM78.76 40.45C80.85 40.45 82.56 39.7799 83.91 38.4299C85.25 37.0899 85.92 35.37 85.92 33.28C85.92 31.15 85.25 29.4299 83.91 28.1299C82.56 26.7799 80.85 26.1101 78.76 26.1101C76.7 26.1101 74.99 26.7799 73.6 28.1299C72.26 29.4299 71.59 31.15 71.59 33.28C71.59 35.37 72.26 37.0899 73.6 38.4299C74.99 39.7799 76.7 40.45 78.76 40.45Z" fill="#0C0047"/>
<path d="M98.61 52.5801L104.16 36.78H105.87L100.3 52.5801H98.61ZM107.48 50V41.52H109.31V42.72H109.37C109.47 42.55 109.6 42.3599 109.79 42.1399C109.98 41.9299 110.23 41.7501 110.54 41.6001C110.85 41.4401 111.24 41.3601 111.71 41.3601C112.34 41.3601 112.86 41.5101 113.27 41.8101C113.69 42.1101 114 42.5 114.2 42.99H114.23C114.46 42.57 114.78 42.1901 115.21 41.8601C115.64 41.5301 116.2 41.3601 116.91 41.3601C117.5 41.3601 118.01 41.5 118.43 41.79C118.84 42.07 119.15 42.4499 119.35 42.9299C119.57 43.3999 119.67 43.93 119.67 44.53V50H117.85V44.78C117.85 44.23 117.72 43.7799 117.45 43.4199C117.18 43.0699 116.79 42.8999 116.27 42.8999C115.84 42.8999 115.49 43.01 115.23 43.25C114.97 43.48 114.78 43.7799 114.67 44.1299C114.55 44.4699 114.49 44.8199 114.49 45.1699V50H112.67V44.78C112.67 44.23 112.53 43.7799 112.27 43.4199C112 43.0699 111.6 42.8999 111.08 42.8999C110.66 42.8999 110.31 43.01 110.04 43.25C109.79 43.48 109.6 43.7799 109.48 44.1299C109.36 44.4699 109.31 44.8199 109.31 45.1699V50H107.48ZM126.05 50.1599C125.12 50.1599 124.34 49.95 123.7 49.54C123.07 49.12 122.59 48.5799 122.26 47.8999C121.94 47.2299 121.78 46.52 121.78 45.76C121.78 45 121.94 44.2901 122.26 43.6201C122.59 42.9401 123.07 42.4 123.7 41.98C124.34 41.57 125.12 41.3601 126.05 41.3601C126.97 41.3601 127.74 41.57 128.37 41.98C129.01 42.4 129.49 42.9401 129.81 43.6201C130.14 44.2901 130.31 45 130.31 45.76C130.31 46.52 130.14 47.2299 129.81 47.8999C129.49 48.5799 129.01 49.12 128.37 49.54C127.74 49.95 126.97 50.1599 126.05 50.1599ZM126.05 48.6101C126.57 48.6101 127.01 48.47 127.36 48.21C127.73 47.94 128 47.5899 128.18 47.1499C128.37 46.7099 128.47 46.25 128.47 45.76C128.47 45.26 128.37 44.7901 128.18 44.3701C128 43.9301 127.73 43.5801 127.36 43.3101C127.01 43.0501 126.57 42.9099 126.05 42.9099C125.53 42.9099 125.09 43.0501 124.72 43.3101C124.36 43.5801 124.09 43.9301 123.91 44.3701C123.73 44.7901 123.64 45.26 123.64 45.76C123.64 46.25 123.73 46.7099 123.91 47.1499C124.09 47.5899 124.36 47.94 124.72 48.21C125.09 48.47 125.53 48.6101 126.05 48.6101ZM132.43 50V41.52H134.25V42.75H134.35C134.42 42.6 134.55 42.42 134.73 42.21C134.91 41.98 135.16 41.7901 135.48 41.6201C135.81 41.4501 136.23 41.3601 136.73 41.3601C137.36 41.3601 137.89 41.5 138.32 41.79C138.74 42.08 139.06 42.4599 139.28 42.9399C139.5 43.4199 139.61 43.95 139.61 44.53V50H137.79V44.72C137.79 44.21 137.64 43.7799 137.36 43.4199C137.08 43.0699 136.66 42.8999 136.11 42.8999C135.67 42.8999 135.31 43.01 135.04 43.23C134.77 43.45 134.57 43.7301 134.44 44.0801C134.32 44.4201 134.25 44.7899 134.25 45.1799V50H132.43ZM145.36 50.1599C144.69 50.1599 144.15 50.04 143.75 49.79C143.34 49.55 143.05 49.2201 142.87 48.8201C142.7 48.4001 142.61 47.95 142.61 47.47V42.99H141.12V41.52H142.61V39.4099H144.43V41.52H146.42V42.99H144.43V47.4399C144.43 48.2399 144.88 48.6399 145.76 48.6399C145.99 48.6399 146.19 48.6201 146.39 48.5901C146.58 48.5601 146.67 48.54 146.67 48.54V50.03C146.67 50.03 146.54 50.0501 146.27 50.1001C146.02 50.1401 145.71 50.1599 145.36 50.1599ZM148.88 50V37.8401H150.7V42.75H150.8C150.87 42.6 151 42.42 151.18 42.21C151.36 41.98 151.61 41.7901 151.93 41.6201C152.26 41.4501 152.68 41.3601 153.18 41.3601C153.81 41.3601 154.34 41.5 154.77 41.79C155.19 42.08 155.51 42.4599 155.73 42.9399C155.95 43.4199 156.06 43.95 156.06 44.53V50H154.24V44.72C154.24 44.21 154.09 43.7799 153.81 43.4199C153.53 43.0699 153.11 42.8999 152.56 42.8999C152.12 42.8999 151.76 43.01 151.49 43.23C151.22 43.45 151.02 43.7301 150.89 44.0801C150.77 44.4201 150.7 44.7899 150.7 45.1799V50H148.88Z" fill="#969699"/>
</svg>
