<svg width="132" height="53" viewBox="0 0 132 53" fill="none" xmlns="http://www.w3.org/2000/svg">
<path d="M15.076 52.3799V47.5601C12.239 47.3401 9.90499 46.74 8.07599 45.77C6.28399 44.76 4.88399 43.6 3.87599 42.3C2.86799 40.9501 2.13999 39.6499 1.69199 38.3799C1.24399 37.0699 0.96399 36.0099 0.85199 35.1799C0.77699 34.3299 0.73999 33.8999 0.73999 33.8999H8.91599C8.91599 33.8999 8.95298 34.19 9.02798 34.79C9.13999 35.35 9.38298 36.0401 9.75598 36.8601C10.129 37.6901 10.727 38.4499 11.548 39.1599C12.407 39.8699 13.583 40.3699 15.076 40.6699V29.02L14.684 28.97C13.191 28.63 11.679 28.1999 10.148 27.6799C8.65498 27.1599 7.27298 26.4701 6.00398 25.6101C4.77198 24.7501 3.76398 23.65 2.97998 22.3C2.23298 20.96 1.85999 19.28 1.85999 17.26C1.85999 14.84 2.43898 12.77 3.59598 11.05C4.79098 9.29005 6.37699 7.9099 8.35599 6.8999C10.372 5.8999 12.612 5.28006 15.076 5.06006V0.300049H19.556V5.16992C21.983 5.42992 23.98 6.02996 25.548 6.95996C27.153 7.85996 28.423 8.9001 29.356 10.1001C30.289 11.2501 30.98 12.4101 31.428 13.5701C31.876 14.6901 32.156 15.6201 32.268 16.3701C32.417 17.1101 32.492 17.49 32.492 17.49H24.428C24.428 17.49 24.372 17.2601 24.26 16.8201C24.185 16.3701 23.98 15.8299 23.644 15.1899C23.345 14.5199 22.86 13.89 22.188 13.29C21.553 12.65 20.676 12.1899 19.556 11.8899V22.7L20.284 22.8601C21.553 23.1601 22.916 23.55 24.372 24.04C25.865 24.49 27.247 25.14 28.516 26C29.823 26.86 30.868 28.02 31.652 29.47C32.473 30.89 32.884 32.6801 32.884 34.8501C32.884 37.1601 32.324 39.2301 31.204 41.0601C30.121 42.8601 28.572 44.3099 26.556 45.4299C24.577 46.5499 22.244 47.24 19.556 47.5V52.3799H15.076ZM9.81198 16.9299C9.81198 18.1599 10.241 19.1499 11.1 19.8999C11.959 20.6099 13.284 21.1999 15.076 21.6899V11.6101C13.433 11.9101 12.145 12.54 11.212 13.51C10.279 14.48 9.81198 15.6199 9.81198 16.9299ZM24.876 35.02C24.876 33.63 24.409 32.5701 23.476 31.8201C22.58 31.0801 21.273 30.48 19.556 30.03V40.6699C21.161 40.3399 22.449 39.6599 23.42 38.6599C24.391 37.6499 24.876 36.43 24.876 35.02ZM53.963 47.5601C51.163 47.5601 48.774 47.11 46.795 46.22C44.817 45.32 43.193 44.18 41.923 42.8C40.691 41.42 39.777 39.98 39.179 38.49C38.619 36.96 38.339 35.56 38.339 34.29H46.347C46.347 34.29 46.403 34.61 46.515 35.24C46.665 35.87 46.982 36.5999 47.467 37.4199C47.953 38.2499 48.699 38.9701 49.707 39.6101C50.715 40.2401 52.078 40.5601 53.795 40.5601C55.513 40.5601 56.931 40.21 58.051 39.5C59.171 38.75 60.011 37.82 60.571 36.7C61.131 35.58 61.411 34.3999 61.411 33.1699C61.411 31.8999 61.131 30.7001 60.571 29.5801C60.011 28.4301 59.171 27.49 58.051 26.78C56.969 26.04 55.606 25.6599 53.963 25.6599C52.694 25.6599 51.649 25.87 50.827 26.28C50.006 26.65 49.353 27.1001 48.867 27.6201C48.382 28.1101 48.027 28.56 47.803 28.97C47.617 29.34 47.523 29.53 47.523 29.53H39.011L42.651 5.56006H67.067V13.0601H48.531L47.075 22.53H47.299C47.486 22.34 47.859 21.9699 48.419 21.4099C49.017 20.8499 49.913 20.3301 51.107 19.8401C52.302 19.3201 53.889 19.0601 55.867 19.0601C58.854 19.0601 61.393 19.7301 63.483 21.0701C65.574 22.4201 67.142 24.15 68.187 26.28C69.27 28.37 69.811 30.5899 69.811 32.9399C69.811 34.7699 69.475 36.55 68.803 38.26C68.169 39.98 67.198 41.55 65.891 42.97C64.585 44.35 62.942 45.4701 60.963 46.3301C58.985 47.1501 56.651 47.5601 53.963 47.5601Z" fill="#0C0047"/>
<path d="M74.1079 52.5801L79.6599 36.78H81.3719L75.8039 52.5801H74.1079ZM82.9819 50V41.52H84.8059V42.72H84.8699C84.9659 42.55 85.1049 42.3599 85.2859 42.1399C85.4779 41.9299 85.7289 41.7501 86.0379 41.6001C86.3469 41.4401 86.7369 41.3601 87.2059 41.3601C87.8349 41.3601 88.3579 41.5101 88.7739 41.8101C89.1899 42.1101 89.4989 42.5 89.7019 42.99H89.7339C89.9579 42.57 90.2829 42.1901 90.7099 41.8601C91.1369 41.5301 91.7019 41.3601 92.4059 41.3601C93.0029 41.3601 93.5099 41.5 93.9259 41.79C94.3419 42.07 94.6509 42.4499 94.8539 42.9299C95.0669 43.3999 95.1739 43.93 95.1739 44.53V50H93.3499V44.78C93.3499 44.23 93.2169 43.7799 92.9499 43.4199C92.6829 43.0699 92.2889 42.8999 91.7659 42.8999C91.3389 42.8999 90.9929 43.01 90.7259 43.25C90.4699 43.48 90.2829 43.7799 90.1659 44.1299C90.0489 44.4699 89.9899 44.8199 89.9899 45.1699V50H88.1659V44.78C88.1659 44.23 88.0329 43.7799 87.7659 43.4199C87.4989 43.0699 87.1049 42.8999 86.5819 42.8999C86.1549 42.8999 85.8089 43.01 85.5419 43.25C85.2859 43.48 85.0989 43.7799 84.9819 44.1299C84.8649 44.4699 84.8059 44.8199 84.8059 45.1699V50H82.9819ZM101.552 50.1599C100.624 50.1599 99.8399 49.95 99.1999 49.54C98.5699 49.12 98.0899 48.5799 97.7599 47.8999C97.4399 47.2299 97.2799 46.52 97.2799 45.76C97.2799 45 97.4399 44.2901 97.7599 43.6201C98.0899 42.9401 98.5699 42.4 99.1999 41.98C99.8399 41.57 100.624 41.3601 101.552 41.3601C102.469 41.3601 103.242 41.57 103.872 41.98C104.512 42.4 104.992 42.9401 105.312 43.6201C105.642 44.2901 105.808 45 105.808 45.76C105.808 46.52 105.642 47.2299 105.312 47.8999C104.992 48.5799 104.512 49.12 103.872 49.54C103.242 49.95 102.469 50.1599 101.552 50.1599ZM101.552 48.6101C102.074 48.6101 102.512 48.47 102.864 48.21C103.226 47.94 103.498 47.5899 103.68 47.1499C103.872 46.7099 103.968 46.25 103.968 45.76C103.968 45.26 103.872 44.7901 103.68 44.3701C103.498 43.9301 103.226 43.5801 102.864 43.3101C102.512 43.0501 102.074 42.9099 101.552 42.9099C101.029 42.9099 100.586 43.0501 100.224 43.3101C99.8609 43.5801 99.5889 43.9301 99.4079 44.3701C99.2259 44.7901 99.1359 45.26 99.1359 45.76C99.1359 46.25 99.2259 46.7099 99.4079 47.1499C99.5889 47.5899 99.8609 47.94 100.224 48.21C100.586 48.47 101.029 48.6101 101.552 48.6101ZM107.928 50V41.52H109.752V42.75H109.848C109.922 42.6 110.05 42.42 110.232 42.21C110.413 41.98 110.664 41.7901 110.984 41.6201C111.314 41.4501 111.73 41.3601 112.232 41.3601C112.861 41.3601 113.389 41.5 113.816 41.79C114.242 42.08 114.562 42.4599 114.776 42.9399C115 43.4199 115.112 43.95 115.112 44.53V50H113.288V44.72C113.288 44.21 113.144 43.7799 112.856 43.4199C112.578 43.0699 112.162 42.8999 111.608 42.8999C111.17 42.8999 110.813 43.01 110.536 43.23C110.269 43.45 110.072 43.7301 109.944 44.0801C109.816 44.4201 109.752 44.7899 109.752 45.1799V50H107.928ZM120.863 50.1599C120.191 50.1599 119.652 50.04 119.247 49.79C118.841 49.55 118.548 49.2201 118.367 48.8201C118.196 48.4001 118.111 47.95 118.111 47.47V42.99H116.623V41.52H118.111V39.4099H119.935V41.52H121.919V42.99H119.935V47.4399C119.935 48.2399 120.377 48.6399 121.263 48.6399C121.487 48.6399 121.695 48.6201 121.887 48.5901C122.079 48.5601 122.175 48.54 122.175 48.54V50.03C122.175 50.03 122.041 50.0501 121.775 50.1001C121.519 50.1401 121.215 50.1599 120.863 50.1599ZM124.377 50V37.8401H126.201V42.75H126.297C126.372 42.6 126.5 42.42 126.681 42.21C126.863 41.98 127.113 41.7901 127.433 41.6201C127.764 41.4501 128.18 41.3601 128.681 41.3601C129.311 41.3601 129.839 41.5 130.265 41.79C130.692 42.08 131.012 42.4599 131.225 42.9399C131.449 43.4199 131.561 43.95 131.561 44.53V50H129.737V44.72C129.737 44.21 129.593 43.7799 129.305 43.4199C129.028 43.0699 128.612 42.8999 128.057 42.8999C127.62 42.8999 127.263 43.01 126.985 43.23C126.719 43.45 126.521 43.7301 126.393 44.0801C126.265 44.4201 126.201 44.7899 126.201 45.1799V50H124.377Z" fill="#969699"/>
</svg>
