<svg width="217" height="33" viewBox="0 0 217 33" fill="none" xmlns="http://www.w3.org/2000/svg">
<path fill-rule="evenodd" clip-rule="evenodd" d="M52.736 9.85996C50.533 9.84996 48.398 10.62 46.702 12.02V10.0799H41.191V31.54H46.92V17.8299C47.536 17.0199 48.3231 16.37 49.2231 15.91C50.1231 15.45 51.115 15.2 52.125 15.17C52.907 15.12 53.689 15.24 54.423 15.51V9.99997C53.866 9.89997 53.301 9.85996 52.736 9.85996Z" fill="#152C5B"/>
<path fill-rule="evenodd" clip-rule="evenodd" d="M2.77699 24.99C4.40399 26.37 6.465 27.12 8.593 27.12C10.134 27.12 11.327 26.36 11.327 25.3C11.37 22.07 1.01801 23.2601 1.01801 16.3101C1.01801 12.2001 4.987 9.64001 9.218 9.64001C11.801 9.64001 14.328 10.3901 16.488 11.8101L13.755 15.99C12.568 15.1 11.138 14.6 9.65401 14.54C8.07001 14.54 6.746 15.17 6.746 16.27C6.746 19.06 17.099 17.96 17.099 25.39C17.099 29.46 13.086 31.99 8.593 31.99C5.495 31.94 2.49 30.92 0 29.08L2.77699 24.99Z" fill="#152C5B"/>
<path fill-rule="evenodd" clip-rule="evenodd" d="M38.749 20.6C38.749 14.63 34.561 9.64001 28.643 9.64001C22.304 9.64001 18.247 14.8599 18.247 20.8199C18.181 22.3099 18.426 23.7901 18.965 25.1801C19.505 26.5701 20.327 27.82 21.381 28.88C22.435 29.93 23.696 30.75 25.084 31.28C26.472 31.82 27.957 32.06 29.443 31.99C31.086 32 32.713 31.67 34.216 31C35.72 30.34 37.066 29.37 38.167 28.15L34.896 24.85C34.212 25.6 33.383 26.21 32.459 26.64C31.535 27.07 30.534 27.3 29.516 27.34C28.079 27.39 26.675 26.9 25.592 25.95C24.51 25 23.833 23.68 23.7 22.25H38.603C38.699 21.7 38.747 21.15 38.749 20.6ZM24.063 18.04C24.27 16.98 24.84 16.02 25.676 15.34C26.512 14.65 27.561 14.28 28.643 14.28C29.688 14.28 30.695 14.66 31.475 15.36C32.255 16.05 32.753 17.01 32.875 18.04H24.063Z" fill="#152C5B"/>
<path fill-rule="evenodd" clip-rule="evenodd" d="M68.0751 23.1801L73.935 10.08H79.896L70.0531 31.54H66.098L56.269 10.08H62.216L68.0751 23.1801Z" fill="#152C5B"/>
<path fill-rule="evenodd" clip-rule="evenodd" d="M84.694 1.87617e-05C85.419 0.0100188 86.125 0.240043 86.722 0.650043C87.319 1.06004 87.782 1.64008 88.051 2.31008C88.321 2.98008 88.385 3.72007 88.237 4.43007C88.089 5.14007 87.734 5.79007 87.217 6.30007C86.7 6.81007 86.045 7.15006 85.333 7.29006C84.621 7.43006 83.884 7.34997 83.215 7.06996C82.547 6.78996 81.976 6.31999 81.574 5.71999C81.172 5.10999 80.958 4.40007 80.958 3.68007C80.958 3.19007 81.055 2.71003 81.243 2.26003C81.432 1.81003 81.708 1.40008 82.056 1.06008C82.403 0.710077 82.816 0.450029 83.269 0.260029C83.722 0.0800285 84.207 -0.00998124 84.694 1.87617e-05Z" fill="#152C5B"/>
<path d="M87.559 10.08H81.83V31.54H87.559V10.08Z" fill="#152C5B"/>
<path fill-rule="evenodd" clip-rule="evenodd" d="M111.259 27.16C110.174 28.71 108.718 29.9701 107.024 30.8101C105.33 31.6501 103.452 32.06 101.561 31.99C98.599 31.99 95.759 30.81 93.665 28.72C91.571 26.62 90.394 23.7799 90.394 20.8199C90.394 17.8599 91.571 15.0201 93.665 12.9301C95.759 10.8301 98.599 9.65002 101.561 9.65002C103.294 9.65002 105.006 10.04 106.565 10.79C108.125 11.55 109.492 12.65 110.561 14.02L106.548 17.45C105.98 16.67 105.237 16.03 104.379 15.58C103.521 15.14 102.571 14.9 101.604 14.89C100.834 14.89 100.072 15.04 99.362 15.34C98.651 15.64 98.007 16.07 97.466 16.62C96.925 17.17 96.498 17.82 96.21 18.53C95.922 19.24 95.779 20.01 95.788 20.78C95.766 21.56 95.903 22.33 96.193 23.05C96.483 23.77 96.918 24.43 97.472 24.97C98.026 25.52 98.687 25.94 99.413 26.22C100.139 26.5 100.915 26.63 101.692 26.59C102.711 26.57 103.711 26.3101 104.603 25.8101C105.495 25.3201 106.252 24.61 106.81 23.76L111.259 27.16Z" fill="#152C5B"/>
<path fill-rule="evenodd" clip-rule="evenodd" d="M132.065 28.14C130.965 29.35 129.618 30.33 128.115 30.99C126.611 31.65 124.984 31.99 123.341 31.97C121.857 32.04 120.374 31.8 118.988 31.26C117.602 30.73 116.343 29.91 115.29 28.86C114.237 27.81 113.414 26.56 112.872 25.17C112.331 23.79 112.084 22.3099 112.146 20.8199C112.146 14.8599 116.202 9.64001 122.556 9.64001C128.459 9.64001 132.647 14.63 132.647 20.6C132.65 21.15 132.606 21.7 132.516 22.25H117.656C117.789 23.68 118.467 25 119.549 25.95C120.631 26.9 122.035 27.39 123.472 27.34C124.49 27.3 125.491 27.07 126.415 26.64C127.34 26.21 128.168 25.6 128.852 24.85L132.065 28.14ZM126.744 18.04C126.602 17.02 126.098 16.07 125.323 15.38C124.547 14.69 123.551 14.3 122.513 14.28C121.428 14.27 120.375 14.65 119.536 15.33C118.697 16.02 118.125 16.98 117.918 18.04H126.744Z" fill="#152C5B"/>
<path fill-rule="evenodd" clip-rule="evenodd" d="M134.871 31.54V10.0799H140.382V11.81C142.081 10.4 144.222 9.62999 146.431 9.63999C147.842 9.63999 149.236 9.94001 150.515 10.54C151.794 11.13 152.926 11.9999 153.831 13.0899C155.285 14.7699 156.041 16.9399 156.041 20.5999V31.54H150.298V20.17C150.378 19.44 150.306 18.71 150.088 18.02C149.871 17.33 149.511 16.69 149.033 16.14C148.157 15.33 146.997 14.8999 145.805 14.9499C144.798 14.9799 143.81 15.2299 142.913 15.6899C142.015 16.1399 141.23 16.7999 140.615 17.5899V31.54H134.871Z" fill="#152C5B"/>
<path fill-rule="evenodd" clip-rule="evenodd" d="M170.785 9.64001C168.272 9.64001 165.816 10.39 163.736 11.8C161.655 13.21 160.045 15.21 159.114 17.54C158.184 19.88 157.976 22.44 158.516 24.89C159.057 27.34 160.323 29.58 162.148 31.3C162.577 31.71 163.138 31.96 163.73 31.99C164.322 32.02 164.905 31.84 165.376 31.48C166.92 30.33 168.794 29.71 170.719 29.71C172.645 29.71 174.519 30.33 176.063 31.48C176.537 31.84 177.124 32.02 177.719 31.98C178.313 31.95 178.876 31.7 179.305 31.29C181.119 29.57 182.377 27.35 182.918 24.91C183.46 22.47 183.26 19.92 182.345 17.59C181.429 15.27 179.84 13.27 177.78 11.85C175.72 10.43 173.285 9.66001 170.785 9.64001ZM170.785 28.4399C169.96 28.4599 169.139 28.32 168.372 28.01C167.605 27.7 166.909 27.25 166.325 26.66C165.742 26.08 165.283 25.38 164.977 24.62C164.672 23.85 164.525 23.03 164.547 22.2C164.506 21.36 164.638 20.51 164.933 19.72C165.229 18.93 165.682 18.2 166.266 17.59C166.85 16.98 167.552 16.49 168.33 16.15C169.108 15.82 169.946 15.65 170.792 15.65C171.639 15.65 172.476 15.82 173.254 16.15C174.032 16.49 174.734 16.98 175.318 17.59C175.902 18.2 176.356 18.93 176.651 19.72C176.946 20.51 177.078 21.36 177.037 22.2C177.059 23.03 176.912 23.85 176.606 24.62C176.299 25.39 175.839 26.08 175.254 26.67C174.669 27.25 173.971 27.71 173.202 28.01C172.434 28.32 171.611 28.4599 170.785 28.4399Z" fill="#81B5A1"/>
<path fill-rule="evenodd" clip-rule="evenodd" d="M194.557 31.54H190.283L181.777 10.08H187.491L192.158 22.35L196.738 10.08H201.522L206.058 22.35L210.755 10.08H216.484L207.963 31.54H203.703L199.123 19.3199L194.557 31.54Z" fill="#152C5B"/>
<path d="M213.343 28.8199V29.28H212.616V31.54H212.092V29.28H211.365V28.8199H213.343Z" fill="#152C5B"/>
<path d="M215.117 30.45L216.106 28.8199H216.484V31.54H215.96V30.01L215.306 31.09H214.928L214.288 30.01V31.54H213.75V28.8199H214.128L215.117 30.45Z" fill="#152C5B"/>
</svg>
