<svg width="124" height="52" viewBox="0 0 124 52" fill="none" xmlns="http://www.w3.org/2000/svg">
<path fill-rule="evenodd" clip-rule="evenodd" d="M123.08 26.46C123.08 17.71 118.84 10.8 110.74 10.8C102.6 10.8 97.6801 17.71 97.6801 26.39C97.6801 36.68 103.49 41.88 111.83 41.88C115.9 41.88 118.97 40.96 121.3 39.66V32.8199C118.97 33.9799 116.31 34.7 112.92 34.7C109.61 34.7 106.67 33.54 106.29 29.5H123.01C123.01 29.06 123.08 27.28 123.08 26.46ZM106.19 23.21C106.19 19.35 108.55 17.74 110.7 17.74C112.79 17.74 115.01 19.35 115.01 23.21H106.19Z" fill="#152C5B"/>
<path fill-rule="evenodd" clip-rule="evenodd" d="M84.48 10.8C81.13 10.8 78.97 12.38 77.78 13.47L77.33 11.35H69.812V51.21L78.36 49.4L78.39 39.73C79.62 40.62 81.44 41.88 84.44 41.88C90.56 41.88 96.14 36.96 96.14 26.12C96.1 16.21 90.46 10.8 84.48 10.8ZM82.43 34.36C80.41 34.36 79.21 33.64 78.39 32.75L78.36 20.0699C79.25 19.0799 80.48 18.39 82.43 18.39C85.54 18.39 87.69 21.88 87.69 26.36C87.69 30.94 85.57 34.36 82.43 34.36Z" fill="#152C5B"/>
<path fill-rule="evenodd" clip-rule="evenodd" d="M58.051 8.79004L66.632 6.93994V0L58.051 1.81006V8.79004Z" fill="#152C5B"/>
<path d="M66.632 11.38H58.051V41.3H66.632V11.38Z" fill="#152C5B"/>
<path fill-rule="evenodd" clip-rule="evenodd" d="M48.855 13.91L48.308 11.38H40.923V41.3H49.47V21.03C51.487 18.39 54.906 18.87 55.966 19.25V11.38C54.872 10.97 50.872 10.22 48.855 13.91Z" fill="#152C5B"/>
<path fill-rule="evenodd" clip-rule="evenodd" d="M31.761 3.96997L23.419 5.73999L23.385 33.13C23.385 38.19 27.179 41.91 32.239 41.91C35.043 41.91 37.094 41.4 38.222 40.79V33.85C37.128 34.29 31.726 35.86 31.726 30.8V18.67H38.222V11.38H31.726L31.761 3.96997Z" fill="#152C5B"/>
<path fill-rule="evenodd" clip-rule="evenodd" d="M8.65002 20.0699C8.65002 18.7399 9.74403 18.22 11.556 18.22C14.154 18.22 17.436 19.01 20.034 20.41V12.38C17.197 11.25 14.393 10.8 11.556 10.8C4.61503 10.8 0 14.43 0 20.48C0 29.91 12.991 28.41 12.991 32.48C12.991 34.05 11.624 34.5601 9.70898 34.5601C6.87198 34.5601 3.24798 33.4 0.375977 31.83V39.97C3.55598 41.33 6.76898 41.91 9.70898 41.91C16.821 41.91 21.709 38.39 21.709 32.27C21.675 22.09 8.65002 23.8999 8.65002 20.0699Z" fill="#152C5B"/>
</svg>
