<svg width="75" height="54" viewBox="0 0 75 54" fill="none" xmlns="http://www.w3.org/2000/svg">
<path d="M35.73 8.66016V31.8601H16.51L35.73 8.66016ZM35.73 0.330078C35.73 2.88008 34.72 5.33013 32.92 7.13013C31.11 8.93013 28.67 9.94006 26.12 9.94006C23.57 9.94006 21.13 8.93013 19.33 7.13013C17.53 5.33013 16.51 2.88008 16.51 0.330078H35.73ZM38.89 31.8601C38.89 29.3101 39.91 26.8701 41.71 25.0701C43.51 23.2601 45.95 22.2501 48.5 22.2501C51.05 22.2501 53.49 23.2601 55.3 25.0701C57.1 26.8701 58.11 29.3101 58.11 31.8601H38.89ZM38.89 23.5302V0.330078H58.11L38.89 23.5302ZM49.64 51.7101C50.63 51.7301 51.59 51.3602 52.3 50.6802L53.62 52.1001C52.75 53.0001 51.54 53.6702 49.66 53.6702C46.44 53.6702 44.36 51.5301 44.36 48.6401C44.35 47.9801 44.47 47.3201 44.72 46.7001C44.96 46.0901 45.33 45.5302 45.8 45.0602C46.2701 44.5902 46.8199 44.2201 47.4399 43.9701C48.0499 43.7201 48.71 43.6001 49.37 43.6101C52.57 43.6101 54.38 46.0402 54.22 49.4202H46.66C46.93 50.8202 47.91 51.7101 49.64 51.7101ZM51.9399 47.8102C51.7299 46.5002 50.95 45.5302 49.39 45.5302C47.94 45.5302 46.92 46.3602 46.66 47.8102H51.9399ZM0 51.6001L5.81995 45.6901H0.140015V43.8301H8.52002V45.7201L2.69995 51.6301H8.59998V53.4901H0V51.6001ZM15.13 51.7101C16.12 51.7301 17.07 51.3602 17.79 50.6802L19.11 52.1001C18.24 53.0001 17.03 53.6602 15.15 53.6602C11.93 53.6602 9.84998 51.5301 9.84998 48.6401C9.82998 47.9701 9.95995 47.3201 10.2 46.7001C10.45 46.0901 10.82 45.5302 11.28 45.0602C11.75 44.5902 12.31 44.2201 12.92 43.9701C13.54 43.7201 14.19 43.6001 14.86 43.6101C18.06 43.6101 19.87 46.0402 19.71 49.4202H12.15C12.42 50.8202 13.41 51.7101 15.13 51.7101ZM17.4301 47.8102C17.2201 46.5002 16.44 45.5302 14.88 45.5302C13.43 45.5302 12.41 46.3602 12.15 47.8102H17.4301ZM32.28 48.6301C32.28 45.5501 34.58 43.6101 37.13 43.6101C37.74 43.6001 38.34 43.7301 38.9 43.9801C39.45 44.2301 39.95 44.6002 40.35 45.0602V39.3601H42.4V53.4601H40.35V52.1301C39.96 52.6101 39.46 53.0001 38.9 53.2701C38.34 53.5301 37.73 53.6602 37.11 53.6602C34.64 53.6602 32.28 51.7101 32.28 48.6401V48.6301ZM40.46 48.6201C40.45 48.0101 40.25 47.4301 39.91 46.9401C39.56 46.4401 39.08 46.0601 38.51 45.8401C37.95 45.6201 37.34 45.5701 36.75 45.7001C36.16 45.8301 35.6199 46.1302 35.2 46.5602C34.78 46.9902 34.5 47.5401 34.38 48.1301C34.27 48.7201 34.3399 49.3401 34.5699 49.8901C34.8099 50.4501 35.2 50.9201 35.7 51.2501C36.2099 51.5901 36.8 51.7701 37.4 51.7701C39.17 51.7701 40.46 50.3601 40.46 48.6201ZM55.5699 51.4102L57.4301 50.4501C57.6701 50.8801 58.04 51.2501 58.47 51.5001C58.91 51.7401 59.41 51.8701 59.91 51.8601C61.07 51.8601 61.6801 51.2601 61.6801 50.5801C61.6801 49.8101 60.55 49.6401 59.33 49.3801C57.69 49.0301 55.97 48.4901 55.97 46.5101C55.97 44.9801 57.43 43.5701 59.72 43.5901C61.52 43.5901 62.86 44.3001 63.62 45.4601L61.89 46.4001C61.66 46.0501 61.33 45.7601 60.95 45.5701C60.57 45.3801 60.15 45.2802 59.72 45.3002C58.62 45.3002 58.05 45.8401 58.05 46.4601C58.05 47.1501 58.94 47.3502 60.34 47.6602C61.93 48.0102 63.73 48.5302 63.73 50.5402C63.73 51.8702 62.5699 53.6601 59.8199 53.6501C57.7999 53.6501 56.3799 52.8302 55.5699 51.4102ZM69.3199 49.1702L67.6899 50.9501V53.4601H65.63V39.3601H67.6899V48.5901L72.05 43.8002H74.5601L70.77 47.9302L74.66 53.4601H72.33L69.3199 49.1702ZM26.0601 43.6101C23.6201 43.6101 21.5699 45.1901 21.5699 47.8201V53.4701H23.67V48.0801C23.67 46.5001 24.58 45.5502 26.14 45.5502C27.69 45.5502 28.47 46.5001 28.47 48.0801V53.4701H30.55V47.8201C30.55 45.2001 28.4901 43.6101 26.0601 43.6101Z" fill="#152C5B"/>
</svg>
